<svg version="1" xmlns="http://www.w3.org/2000/svg" width="1165.333" height="1165.333" viewBox="0 0 874.000000 874.000000"><path d="M516 76.1c-4.7.3-11.2 1.4-14.5 2.3-7.2 2.1-24.6 10.7-29.4 14.4-1.9 1.5-5.2 4-7.5 5.6-8.4 5.9-20.8 21.7-23.6 30-1.6 5.1-5.5 6.9-13.4 6.3-7.8-.5-10.4.4-10.8 4-.3 2.5-.7 2.8-3.8 2.7-1.9-.1-6.2-1.1-9.5-2.4-5.3-2-7.9-2.3-22-2.4-18-.1-23.4.8-44.2 7.5-16.1 5.2-21 7.5-32.1 14.8-10.8 7.1-16.8 12.4-22.8 20.3-11.5 14.9-17.6 32.4-17.5 50.1.1 7.1.5 10 2.8 17.7.9 3 1.7 5.7 1.8 6 .5 2.2 6.1 11.6 9.8 16.5 5.1 6.8 9.2 10.7 16.8 16.1 3 2.1 5.6 4.2 5.9 4.6.8 1 14.9 6.8 16.6 6.8 1.8 0 6.4 2.2 6.4 3 0 .4-1.4 1.3-3.1 2-4.3 1.8-11.6 9.4-12.4 13-.3 1.6-.2 3.7.3 4.7.9 1.5 1.2 1.1 2.6-2.1 3.7-9 15.9-16.4 28.1-17.2 5.3-.3 8.2-.6 17.5-1.9 5.1-.7 20.7-4.5 26.5-6.4 3.3-1.1 6-1.9 6.1-1.8.1.1.4 9.8.6 21.5.5 19.7.4 21.4-1.3 22.2-2.5 1.4-2.4 1.4-7.1-2.8l-4.1-3.7.7 3c2 7.9 7.3 16.2 18.2 28 3.2 3.5 6.3 5.2 15.4 8.5 13.5 5 16.3 5.9 19.9 6.5 1.9.3 3.7.7 4 .9.3.2 3.5.7 7.1 1.1 3.6.4 7.2.8 8 1 2.9.5 18.6 1.8 22.5 1.9 29.2.1 57.9-17.5 66-40.4 2.6-7.2 5.3-18.1 6-23.9.4-3 .9-6.3 1.2-7.5.3-1.2.7-19.4.8-40.6.4-42.9.9-55.9 3-64.9l.7-3.4 2 2.4c1.5 1.7 1.8 1.9 1.4.6-.3-1-.6-2.3-.6-2.7 0-1.7-9-10-11.5-10.6-1.4-.3-2.5-.9-2.5-1.3s-3.3-2.6-7.2-4.9c-6.9-3.9-19.9-8.1-30.8-9.8-11.9-1.9-24.1.6-28.1 5.8l-1.6 2.1-4.4-2.1c-6.8-3.2-15.5-4.3-30.3-3.8-7.4.2-13.8.6-14.3.9-.4.3-3 .8-5.6 1.1-13.6 1.9-26.9 8.2-34.7 16.8-7 7.7-4.3 7.1 6.4-1.4 2.7-2.2 6.1-4.5 7.5-5.2 3-1.6 15.9-5.3 21.1-6.1 1.9-.3 5.8-.9 8.5-1.3 5.1-.8 25.6-.7 31 .1 4.6.8 8.2 2.7 9.5 5.2 1.5 2.7.7 12.5-1.3 17.5-2.3 5.8-3 7.5-3.2 8-.1.3-.7 1.8-1.3 3.3-.7 1.6-1.2 3.1-1.2 3.5 0 1.1-9.5 16.6-12.1 19.7-7.5 9-13.8 15.5-21.9 22.5-5.9 5.1-19.2 13.1-28.4 17-5.4 2.3-10.3 4.3-11 4.5-.6.1-1.8.5-2.6.8-3.6 1.5-19.7 5.8-24.7 6.6-5.9.9-29 .7-33.8-.4-6-1.3-17.1-5.4-22-8.1-9.8-5.5-18.8-16.2-25-29.7-6-13-7.3-22.2-4.8-34.1 4.4-21 20.9-41.8 43.6-54.5 2-1.2 5.4-3 7.5-4.2 2-1.2 4.2-2.4 4.7-2.9 2.4-1.8 21.6-8 33-10.7 4.7-1.1 27.1-.9 33.4.3 7 1.3 21.6 6 35.7 11.4 5.9 2.2 10.1 4.7 15.3 9.1 5.4 4.6 7.1 5.6 7.1 4.1 0-1-.6-2.4-1.2-3-3.3-3.3 6.5-4.3 26.1-2.6 4.1.3 10.9.7 15 .9 7.8.4 8.7.5 15.6 2.3 8 2.2 20.8 3.3 22.1 2 .7-.8 1.8-11.1 1.8-17.2 0-5.2-.3-6.1-2.8-8.2-2.7-2.4-2.9-2.4-28.9-2.5-14.4-.1-26.6-.1-27.1 0s-.6-.5-.2-1.4c.3-.8.9-2.2 1.2-3 .7-1.6.9-1.7-6.9 1.9-2.1.9-4.7 1.4-5.8 1.1-2.5-.8-2.5-4.5.1-7.3 1.1-1.2 2-2.6 2-3.1 0-.6 1.8-2.5 4-4.2 4.7-3.8 5.1-5.2 1.3-4.7-1.9.2-3.8 1.7-6 4.8-1.8 2.5-3.8 5-4.3 5.7-.6.7-1 1.5-1 1.9 0 1.2-4.1 6.4-5.1 6.4-.6 0-1.6-1.4-2.3-3.1l-1.3-3.1-3.3 3.1c-1.8 1.6-3.7 2.8-4.2 2.5-1.8-1.1-.6-4.4 4.5-11.6 17.2-25 39.1-38.1 65.7-39.5 26.1-1.3 43.9 9.5 56.1 34.2 5.4 10.9 7.6 19.9 7.8 31.8.1 5.4.5 10.4.8 11.2.9 2.6 4.9 1.6 8.5-2.1 1.9-1.9 4.1-3.6 4.9-3.8 3.3-.6 7.9-2.2 13.6-4.9l2.7-1.2-3.9-.3c-2.3-.2-5.7.5-8.7 1.8-6.3 2.7-9.3 2.4-9.2-1 .1-1.4.2-2.8.3-3.3 0-.4 1.3-1.2 2.9-1.8l2.7-1.1-3.7-1.9c-3.5-1.8-3.8-2.3-3.8-6.1 0-7.3-10.1-33.2-14.4-36.7-.9-.8-1.6-1.8-1.6-2.3 0-1.6-9.7-10.7-15.4-14.2-11.6-7.5-18.5-8.9-37.6-7.5zm1.5 102.2c10 2.8 24.1 9.7 25.8 12.6 2.2 3.8 1.4 10.2-2.3 17.6-3.5 7.1-5.1 9-10.5 13-2.2 1.7-4.2 3.2-4.5 3.6-2.5 2.8-16.3 10.6-20.1 11.2-1.3.3-4 1.4-5.9 2.6-4.6 2.6-11.4 5.1-16.5 5.8-2.2.3-6.9 1.3-10.5 2.2-3.9 1-10.3 1.7-16 1.6-10.9 0-12.3-1.2-7.3-6.2 10-9.7 22-35.2 22.8-48.2.6-9 3.4-12.8 11.9-16.2 5.1-2.1 25.4-1.8 33.1.4zm27.5 41.8c-.4 2.3-.8 10.2-.8 17.5-.1 18.1-.1 17.4-1.4 17.4-.6 0-.9-.3-.6-.6.3-.3.2-2-.3-3.7-.4-1.8-1.1-4.8-1.4-6.7-.3-1.9-1.3-6.3-2.1-9.7-1.8-7.3-1.2-11.1 2.3-15.3 3.6-4.4 5.2-4 4.3 1.1zm-13.6 11.3c3 4 4.5 7.4 5.2 12.5.3 2 .9 6 1.5 8.8.6 2.9.9 5.4.8 5.5-.1.2.4 1.4 1.1 2.8.8 1.4 1.5 2.7 1.6 3 0 .3.4 1.4.9 2.4 1 2.4 1.1 11.8.1 22.1-.4 4.4-.9 11.4-1.1 15.5-.2 4.1-.7 8.6-1 10-.3 1.4-.8 4-1.1 5.9-.8 5-6 18.5-9 23.6-8.7 15-33.2 27.7-53.3 27.8-7.3 0-24.2-1-28.1-1.7-1.4-.3-4.3-.8-6.5-1.1-2.2-.4-5.3-.9-7-1.2-1.6-.3-7.5-2-13-3.9s-11.1-3.7-12.5-4c-5.6-1.2-10.4-8.1-11.5-16.5-1.5-11.5-2.9-33.2-2.8-44.3.1-9.2.3-10.1 2.4-11.7 1.3-1 2.8-1.9 3.2-1.9 1.2 0 17.6-11.4 21.3-14.7 1.6-1.5 4.6-4.2 6.5-5.8 1.9-1.7 4.7-4.7 6.2-6.8 3.2-4.3 4.6-4.5 7.5-1.5 4 4.3 4.4 7.4 4.7 34.8.1 14.6.6 28.7.9 31.5.3 2.7.9 7 1.2 9.4 1.4 12.2 7.1 33.1 8.9 33.1.6 0-.2-8.7-1-9.9-.1-.3-.6-2.2-.9-4.1-.3-1.9-1-6.2-1.6-9.5-2-11.7-2.5-22.3-2.5-52.1.1-27.1.2-30.4 1.8-32.8 2.1-3.2 5.5-4.7 11.7-5.2 2.5-.2 7.2-.6 10.6-.9 3.4-.3 8-1.2 10.4-2 5.7-2 6.7-1.9 9.5.9 2.4 2.4 4.3 7.7 5 14.3.3 3.3 1.3 10.2 3 20.3.2 1.4.7 5 1 8 2.5 22.1 11.7 59.1 14.1 56.7.3-.3-.2-2.9-1-5.8-.8-3-1.8-6.8-2.1-8.4-2.7-15.5-3.5-20.8-3.9-25.6-.3-3.1-.7-6.7-1-8-1-4.1-1.6-8.2-2.2-14.4-.3-3.3-.7-7.1-1-8.5-.2-1.4-.7-4.8-1-7.5-.4-2.8-.8-5.2-.9-5.5-.2-.3-.7-3.2-1-6.4-1-8.4.8-14 6.5-19.5 3.8-3.8 13.7-10.6 16.1-11 .4-.1 1.8 1.4 3.3 3.3z"/><path d="M609.7 157.6c-.1.1-2.1.4-4.5.8-10.4 1.4-23.6 7.3-24.6 10.8-.6 2.5 1.7 2.3 6.7-.5 9.9-5.5 19.6-7.6 36-7.7 3.3 0 3.6-1.7.3-2.6-2.2-.5-13.5-1.2-13.9-.8zM618.5 167.8c-.1.2-3.1 1-6.5 1.8-6.8 1.6-20.3 7.5-21.5 9.4-.4.6-.3 1.6.3 2.2.6.6 3.3-.2 7.8-2.5 10.2-5.2 18.5-7.3 28.9-7.5 6.6 0 9.1-.4 9.3-1.4.2-.9-1.4-1.4-5.5-1.6-3.2-.2-7.3-.4-9.1-.6-1.8-.1-3.5 0-3.7.2zM631.5 178.8c-11.5 1.1-24.4 6-25.9 9.8-1.2 3 .9 3.5 4.4 1 10.3-6.9 30.5-8.9 51.1-5.1.9.2 2.2 0 2.9-.5 1-.6.7-1.1-.9-1.9-1.1-.7-2.1-.9-2.1-.7 0 .3-1.2.1-2.6-.4-3.6-1.4-20.9-2.8-26.9-2.2zM388.9 179.9c-7.5 2.3-21.8 14.2-25.4 21.1-2.7 5.2-.2 4 8.3-4.1 8.6-8.1 17.6-14.9 19.9-14.9.7 0 1.3-.7 1.3-1.5 0-1.6-.3-1.7-4.1-.6zM358.7 196.6c-1.2 1.5-2.8 3.2-3.4 4-1.5 1.4-1.7 4.4-.4 4.4 1.5 0 9.2-9 8.6-10-1-1.6-2.4-1.1-4.8 1.6zM618.5 195.5c-7.3 1.8-8.5 2.5-8.5 4.7 0 1.6.4 1.9 2.3 1.4 12.9-3.8 25.9-4 38.3-.6 7.2 1.9 20.6 7.5 24.4 10 3.8 2.5 8 4.3 8.7 3.6 1.8-1.8-12.4-10.5-24.3-14.9-13.2-5-30.5-6.7-40.9-4.2zM619.6 208c-3.5.6-5.8 3.6-3.7 4.9.8.5 2.7.5 4.5 0 3.8-1.1 14.4-1.4 20.8-.5 5.3.7 15.4 4.2 16.3 5.7.4.5 1.3.9 2.1.9 2.1 0 16.8 10 25.6 17.5 4.3 3.6 8 6.5 8.3 6.5 1.2 0-1.1-3.9-4.4-7.4-9.2-9.8-33.6-25.8-37.2-24.3-.3.1-1.2-.3-2-.9-.8-.6-3.2-1.5-5.4-1.9-4.8-1-20.8-1.3-24.9-.5zM635 226.8c-4.1.4-6 1.8-6 4.3 0 1.4.6 1.7 2.8 1.3 5.7-1.1 12.8-1.1 17.3.1 9.8 2.6 24.1 13.3 34.8 26.1 5.5 6.5 15.7 19.3 16.7 21 1.6 2.6 3 .9 1.6-1.8-2.2-4.2-9.3-15.3-10.5-16.3-.7-.6-2.5-2.8-4.2-5-7.2-9.8-25.2-24.5-33.5-27.4-5.2-1.9-13.4-2.9-19-2.3z"/><path d="M634.6 248.6c-1 2.5.9 3.9 5.2 3.6 5.3-.4 14.6 2.3 22.6 6.4 3.8 2 7.4 4 8 4.5.6.5 3.3 2.4 6 4.1 5.9 3.8 23.2 20.9 30 29.5 4.5 5.7 6.6 7.6 6.6 5.5 0-.4-.9-1.8-2-3.2-1.1-1.4-2-2.9-2-3.4 0-1.5-8.4-11.6-17.5-21.2-5.7-6-19.8-16.3-28.1-20.6-7.7-4.1-12.9-5.6-22-6.4-5.2-.5-6.2-.3-6.8 1.2zM303.9 259.5c-1.2 4.9 3.2 13.5 6.9 13.5 1.2 0 1.1-.5-.6-2.3-1.1-1.2-2.6-4.3-3.2-7-.7-2.6-1.6-4.7-2.1-4.7s-1 .2-1 .5zM379.6 263.5c-.3.8.4 1.7 1.6 2 2.5.8 4.6-.9 2.6-2.1-2.1-1.4-3.6-1.3-4.2.1zM326.9 265.3c-.2 4.1.3 6.2 2.2 9.3l1.9 3.1-2.6-.5c-1.8-.3-3.1-1.5-4-3.8-.8-1.9-1.4-3.7-1.3-4.1.3-2.1-.2-3.4-1.3-3.1-1.6.6-2 4.8-.6 6.6 1.1 1.3.9 1.4-1.2.7-3.3-1-4.8-2.2-5.5-4.6-.8-2.6-2.5-1.4-2 1.3.6 3.2 3 5.1 6.3 5.3 1.6.1 4.1 1.1 5.6 2.3 2.2 1.7 3.3 1.9 5.2 1.2 1.8-.7 3.1-.6 4.9.6 1.3.9 3.2 1.4 4.2 1.2 1.3-.2.9-.8-1.9-2.5-4.3-2.5-7.2-7.4-6.6-11.4.3-2 0-2.9-1.4-3.2-1.3-.4-1.8.1-1.9 1.6zM336.6 265.9c-1.1 1.7.9 4.9 4.8 8 3.7 2.9 6.7 4 6.6 2.3-.1-.4-1.8-2.1-4-3.7-2.1-1.7-4.1-4-4.4-5.3-.7-2.3-2.1-2.9-3-1.3z"/><path d="M642.3 266.1c-1 1-.9 1.6.3 3 .9 1 2.2 1.5 3 1.2 3.9-1.5 20.9 5.5 28.4 11.5 12.3 10 27.7 29.6 37.5 47.7 2.1 3.8 4.1 7.4 4.5 8 .4.5 1.7 3.6 3 6.7 1.2 3.2 2.7 5.8 3.2 5.8 1.1 0 .9-.8-2.2-9.4-3.4-9.5-11.5-24.3-18.8-34.6-6.5-9.2-28-32-30.2-32-.6 0-2.7-1-4.8-2.3-8-5-21.5-8.1-23.9-5.6zM349.3 266.8c-1.9 1.2 1.5 6.9 4.5 7.9 1.5.5 3.3.8 4 .7.6-.1 1.7-.2 2.2-.3 2.4-.3.7-2.1-2-2.1-2.2 0-3.5-.8-5.3-3.4-1.3-2.1-2.8-3.2-3.4-2.8zM364 267.5c-1.5 1.8-.7 3.1 3 4.3 3.7 1.3 5.1-.3 2.1-2.4-1.2-.9-1.9-2-1.6-2.5 1-1.5-2.2-1-3.5.6z"/><path d="M647.7 289.4c-.7 1.6 2.6 4.6 5.1 4.6.8 0 3 .8 5 1.7 4.4 2 19.2 12.3 19.2 13.4 0 .4 1.5 2.2 3.3 4.1 7 7.3 15.4 19.8 21.9 32.7 3.7 7.5 6.8 14.2 6.8 14.9 0 .8.6 2.8 1.4 4.5.8 1.8 2.2 5.9 3.1 9.2 1 3.3 2 7.1 2.4 8.4.4 1.4 1.2 2.6 1.7 2.8 1.7.6-1.7-14.4-6.3-27.7-8.3-24.4-22.2-45.2-39.8-59.6-8.9-7.3-22.5-12.4-23.8-9zM337.5 309.6c-10.3 3.7-17 7.3-27.1 14.4-13.4 9.5-26.4 22.8-26.4 27.1 0 2.9 2.8 2.3 4.4-1 2.3-4.4 18-18.6 28-25.2 8.1-5.5 18-10.7 23.2-12.3 1.2-.4 2.9-1.5 3.9-2.6 1.7-1.9 1.7-2-.1-1.9-1 0-3.7.7-5.9 1.5z"/><path d="M654 311.8c0 2.3 1.9 4 8.5 7.8 16.9 9.6 42.5 45.9 50 70.9 1 3.3 2.2 6.5 2.6 7.1.5.6.7 1.3.4 1.6-.7.7 1.5 6.8 2.5 6.8 1.5 0-2.6-18.5-6-27-1.2-3-2.3-6-2.4-6.6-.3-1.9-11.6-21.5-16.3-28.1-2.3-3.5-4.3-6.5-4.3-6.8 0-1.4-17.3-17.3-24-22-8.2-5.8-11-6.7-11-3.7zM333.1 323.1c-12.8 7-22.2 14-33.7 25.4-14.9 14.8-21.3 24.1-19.2 27.9.8 1.3 1.3 1.5 2.4.5.8-.6 1.4-1.8 1.4-2.7 0-2.5 10.3-15.3 18.8-23.4 10.9-10.4 17.2-15.3 31.4-24.4 4.9-3.1 8.5-6 8.2-6.5-.8-1.4-1.3-1.2-9.3 3.2zM334.5 339.3c-15.8 8.6-27.8 18.7-39.7 33.5-7.9 9.8-12.8 18-12.4 20.7.5 3.2 3 2.3 4.8-1.7 2.4-5.3 11.8-17.7 19.6-26 6.1-6.4 14.3-13.3 25.6-21.2 2.3-1.6 4.3-3.2 4.6-3.6.3-.3 1.3-.9 2.3-1.3 2-.7 2.3-2.7.5-2.6-.7 0-3.1 1-5.3 2.2z"/><path d="M663 340.5c-1.1 1.3-.1 2.7 6.7 9.3 10.5 10.2 23.3 25 26.2 30.4 1.2 2.4 4.1 7.4 6.3 11.3 5.2 9.2 12.1 25.3 16 37.7 1.8 5.4 3.6 9.8 4 9.8 1.1 0 1-1.6-.8-8.5-2.9-11.3-6.4-22-10-30-1-2.2-1.8-4.2-1.9-4.5 0-.3-.5-1.2-1-2s-2.6-4.6-4.5-8.3c-5.9-11.2-15.5-23.8-26.8-35.6-5.9-6.1-11.2-11.1-11.8-11.1-.6 0-1.7.7-2.4 1.5zM333.5 354.2c-3.1 1.7-13.4 10.7-19.3 16.9-7.8 8.2-13.5 16.1-19.7 27.5l-5.6 10.1-5.7-1.3c-3.1-.7-7-1.5-8.7-1.8-1.6-.2-5.2-.9-8-1.5-14.8-3.1-20.1-4.2-22.9-4.7-1.6-.2-5.6-1.1-9-1.9-3.3-.8-7.2-1.6-8.6-1.9-1.4-.2-5.4-1.1-9-2-3.6-.8-7.8-1.7-9.5-2-1.6-.3-4.5-1-6.2-1.5-1.8-.5-3.3-.8-3.3-.6 0 .3-1.1 0-2.5-.5-2.5-.9-3.6-1.2-10-2.5-1.6-.3-6.8-1.9-11.5-3.5l-8.5-2.8-5.7 2.3c-3.1 1.3-5.9 2.1-6.2 1.7-.6-.6-2.1 5.4-1.9 7.8 0 .8 1.5 8.5 3.2 17 1.7 8.5 3.4 17 3.7 18.9.3 1.8.8 4.3 1 5.5.2 1.1.6 4.1.9 6.6.3 2.5.8 5.6 1 7 .8 4.7 1.4 8.5 2 14.5 1.3 11.5 1.4 12.8 1.9 15.9.4 2.8.9 9.5 2.1 34.1.4 8.4 1.3 13.7 2.5 14.9.4.4 2.8 1.2 5.2 1.6 2.3.5 5.6 1.4 7.2 2l3 1.1-3 2.5c-1.6 1.3-4.2 3.7-5.9 5.2-1.6 1.5-5.5 4.6-8.6 6.9-7.1 5.2-10.9 9.7-11 13.1-.3 4.7.1 8.6 1 10.7 4.9 11.4 6.3 15 8.6 21.2 2.1 5.8 3.3 7.7 6.1 9.4 1.9 1.1 4 2.6 4.7 3.2 1.4 1.3 3.9 2.8 11.4 6.9 10.8 5.9 23.1 8.4 29.3 6 1.4-.6 4.1-2.4 6-4.1 2.7-2.4 4-2.9 6-2.3 4 1.1 18.1.6 22.5-.8 2.2-.7 5.2-2.2 6.7-3.3 1.6-1.2 4.7-2.1 7.7-2.3 7.4-.6 10-1.9 10.7-5.4.7-3.5.3-3.4 7.4-1.4 3 .8 6 1.6 6.5 1.7 4.5 1.1 14.8 5.4 15.2 6.4.3.7.1 3.1-.4 5.5-.9 4.6-.6 9.8.5 9.8.9 0 2.5-3.9 4.1-9.8 1.1-3.8 1.5-4.2 3.4-3.6 1.2.3 3.2 1.2 4.3 2 2.1 1.3 2.1 1.5.7 8.1-2.1 9.7-2.4 15.3-.9 15.3 1.1 0 4-8.1 6.2-17.2.5-2.4.9-2.6 3.7-2.1 5.4 1 6.7 2.1 6.2 5.1-.6 4.1-1.5 8.5-2.1 10.2-1.6 4.3-2.3 24.3-1 27.6.7 1.7.8 1.8 1.7.2.5-.9 1.2-4.3 1.5-7.5.7-7.3 1.4-13.2 1.8-15.8 3.1-17.3 2.7-16.8 8.9-13.9l3.5 1.7-.1 13.1c-.1 7.2.2 16.2.6 20.1.4 3.8 1 9.5 1.3 12.5 1.4 14.9 3.2 23 4.9 23 1 0 1.1-4 0-12.5-.3-2.8-.8-16.3-1-30-.5-24.1-.5-24.9 1.2-21.7 1.2 2.3 3.2 4 6.5 5.4 2.6 1.1 4.8 2.6 4.9 3.2.1.6.2 2.9.4 5.1.5 7.4 1.6 17.8 1.9 18.4.2.3.7 3.3 1 6.6.4 3.3.9 6.7 1.2 7.6.2 1 .6 3 .8 4.5 1.5 11.2 8.9 32.7 12.2 35.5 1.5 1.2 1.6 1 1.1-2.1-.3-1.9-1.4-5.9-2.5-8.8-1.1-2.8-1.9-5.2-1.7-5.2.2 0-.2-1.8-1-4-1.3-3.6-1.9-6.9-2.9-14.7-.2-1.5-.7-4.7-1-7-.4-2.3-.9-5.7-1.2-7.5-.3-1.8-.6-4.4-.9-5.8-.2-1.4-.6-6.3-1-11s-.9-8.8-1.2-9.3c-.7-1.1.8-.8 6.3 1.2 4.4 1.7 5.4 1.8 7.6.7 7-3.7 37.9-14.1 48.8-16.5 2.5-.6 7.2-2 10.5-3.1 4.8-1.7 15.1-4.6 23-6.5.6-.1 2.4-.8 4-1.4 1.7-.7 6.2-1.9 10-2.7 3.9-.8 11.5-2.8 17.1-4.4 9.2-2.7 13.2-3.7 15.9-3.9 4-.4 4.3-1.8 4.7-24.5.2-11.6 0-12.9-1.7-14.2-1-.8-2.7-1.4-3.6-1.4-2.6 0-19.9-4.1-19.9-4.7 0-.3 1.7-2.5 3.8-4.8 2-2.3 4.2-4.9 4.7-5.9 1-1.7 1.2-1.7 4.6.3 17.1 10.1 58.9-2.6 61.5-18.8l.7-4.3 10.6-5.1c5.8-2.8 14.9-7.5 20.1-10.6 5.2-3 12-6.8 15-8.4 18.3-10 31.6-24.3 33.6-36.3.2-1.6.9-5.2 1.4-7.9 2.9-15.3 3.2-48.4.5-64-2.2-12.7-3.9-17.7-7.7-22-4.5-5.1-7.8-6-7-2 .2 1.4.7 2.5 1.1 2.5 2.6 0 6.5 14.1 7.8 28 1.3 14.3.6 45.1-1.2 54.1-.3 1.3-.8 4-1.1 5.9-1.5 8.9-5.4 15.9-13.7 24.3-1.8 1.8-15.1 10.7-16.1 10.7-.3 0-5.2 2.8-10.8 6.2-5.7 3.5-16.8 9.4-24.6 13.3-13.9 6.9-14.2 7.1-16.8 12.2-4.7 9.2-13.7 16.2-22.5 17.7-1.8.3-4.7.8-6.4 1.1-3.7.7-15.6.7-16.2.1-.3-.3.7-1.6 2.1-2.9 2.2-2.1 3.6-5.7 2.1-5.7-.3 0-2.7 1.2-5.4 2.7-4.8 2.7-7.1 2.8-5.5.1 1.8-2.8 3.1-7.7 2.3-8.9-1-1.6-.9-1.7-4.8 5.7-7.1 13.4-28.5 29.1-39.1 28.8-3.7-.2-8.7-1.7-10.9-3.3-2-1.5-2.3-2.4-1.7-5.2.5-2.6 2.8-5.4 9.8-11.9 27-24.9 30.3-29.6 22.7-32.3-5.5-1.9-18.2 9.8-30.4 28.3-6.1 9.3-9.8 13.8-13 16-8.7 6-19 8.3-24.4 5.6-3.1-1.6-3.7-3.4-3.1-9.1.2-1.9 4.6-10.5 6-11.5 1.5-1.1 18.4-22.7 21.5-27.4 1.8-2.8 4.5-6.5 6-8.1 4.6-5 14.4-18.4 16.1-22 1.7-3.6 1.6-6.6-.2-7.2-.7-.2-1.4.6-1.8 1.9-.3 1.3-3.5 5.8-7.1 10-5.7 6.6-7.4 7.9-11.8 9.3-2.9.9-6 2-6.9 2.6-2.4 1.3-2.6 1.2-3-1.3-.5-3.6-2.4-3.1-4.4 1.4-1 2.4-4.6 7-7.9 10.3-7.1 7.1-19.1 13.4-27.1 14.2-4.4.5-5.4.2-7.3-1.8-2.8-3-3.5-5.9-2.7-11.3.9-5.8 3.7-9.8 11.6-16.4 3.6-3 10.9-9.6 16.2-14.8 8.4-8 14.3-12.5 16.3-12.4.3 0 .6 0 .8-.1 1.2-.4 4.7-1.1 6.7-1.3 1.4-.2 4.4-.9 6.8-1.5 2.3-.7 6.8-1.4 10-1.6 3.1-.2 7.8-1.1 10.4-1.8 2.6-.8 6.6-1.3 9-1.1 11.3.9 35 11.3 46.8 20.4 1.9 1.5 6.7 4.4 10.5 6.5 3.9 2 7.6 4.2 8.4 4.8 1.4 1.2 2.7 2 8.2 5.1 1.8 1 3.9 2.5 4.7 3.2 1.5 1.6 3.4 1.8 4.8.5.5-.4 4.7-2.8 9.4-5.2 9.9-5 27.9-16.6 36.7-23.5 3.4-2.7 8.9-6.9 12.4-9.4 6.9-5 12.9-10.7 12.9-12.2 0-1-.6-.7-7 4.1l-3.3 2.4.6-9.9c.4-5.4.9-11 1.3-12.4.3-1.4.8-9.7 1-18.5.4-14.8.2-16.8-2.2-26.5-1.5-5.8-2.7-11.2-2.8-12-.8-5.6-5-15-6.8-15-1.3 0-.3 8.9 1.2 10.4 1.6 1.6 1.2 2.6-1 2.6-2.8 0-4 3.7-4.5 13.7-.3 5.7 0 9.6 1.1 12.5 1.6 4.6 5 8.8 7 8.8 2.6 0 3.1 3.5 1.9 13.5-.2 1.6-.6 5.2-1 8-.3 2.7-.8 6.1-1 7.5-.2 1.4-.7 6.5-1 11.5-.4 4.9-.9 9.3-1.2 9.8-.7 1.1-21.5 14.6-31.8 20.7-19.9 11.7-26.4 14.5-27.9 12.2-.3-.5-5.7-3.9-12-7.7-6.3-3.7-12.3-7.5-13.3-8.4-6.7-6.2-31.3-18.7-43-22-6.9-1.9-17.3-2.1-24-.6-9 2-12.6 2.7-22.3 4-11.6 1.6-12.8 2.3-25 13.8-10.6 10-16 14.7-24.5 20.8-10.3 7.6-13.4 13.7-11.9 23.5 1.1 7.8 9.3 13.6 19.1 13.6 10.8 0 21.7-5.4 31.9-15.8 6.8-6.9 10.2-9.3 15.2-10.9 2-.6 1.4.6-3.4 7.2-3.2 4.3-8.9 11.6-12.8 16.1-3.9 4.6-7.8 9.3-8.7 10.4-1.5 2-2 2-6.5.9-2.7-.7-5.8-1.5-6.9-1.7-2.3-.4-26.9-6.7-27.3-6.9-.2-.2-1.2-7.6-2.7-19-.5-4.3-1.7-12.3-2-14-1.9-8.9-2.9-14.4-4-22.5-.3-2.5-.8-5.2-1-6-.2-.8-.7-3.8-1-6.5-.3-2.8-.7-6.1-1-7.5-1.3-6.4-2.4-14.3-3-21.9-.7-7.6-.9-8.2-3.8-7.7-1.2.2-3.3-.1-4.6-.6-1.3-.5-4-1.1-6-1.4-4.1-.6-6.2-2.1-4.5-3.2 1.4-.9 2.5-5.1 1.5-5.7-.4-.2-2.5 1.4-4.6 3.5-3.8 3.9-4 4-9.4 3.4-6.9-.7-7.1-.8-6.5-4 .6-3.4 4.2-8.9 9.3-14.3 2.2-2.4 3.9-4.7 3.6-5.1-1-1.6-4.6.3-8.6 4.5-5.2 5.4-7 8.1-8.5 12.4-1 3-1.7 3.6-4.1 3.7-3 .1-6.4-1.2-7.5-2.9-1.2-1.9 6.4-14.5 15.3-25.5 12.4-15.5 12.7-18.3.9-7-7.5 7.2-15 17.1-18.9 25.2-3.3 6.6-3.8 7.1-7.8 6-2.6-.7-2.1-2.8 2.5-12 4.5-8.9 12.4-19 25.1-32 10.5-10.7 13.3-14.7 8.6-12.2zm-162.8 34.1c.5.3 2.3.9 3.9 1.2 6.8 1.4 7.8 1.6 8.5 2 .4.3 2.4.7 4.5 1 2.2.3 4.6.8 5.4 1.1 1.8.7 18.4 4.3 22 4.9 5.3.8 40 8.7 49 11.2 15.6 4.2 26.7 6.9 33.3 7.8 2.2.4 4.9 1 6.1 1.4 1.1.5 2.4.9 2.9.9.6 0 7.8 1.3 9.7 1.7.3 0 1.4.4 2.5.7 1.9.6 3.5.9 13.3 2.3 2 .3 8.1 1.5 13.4 2.5 5.3 1.1 9.9 2 10.1 2 .2 0 .4.6.4 1.2.1 2.1 1.4 10.2 2 12.2.3 1 .6 3.5.8 5.5.2 2 1 7 1.8 11.1.9 4.1 1.8 10.2 2.2 13.5.3 3.3.8 7.1 1.1 8.5.3 1.4.7 3.7.9 5.2.2 1.5.9 4.6 1.5 6.9.6 2.2 1.3 6 1.6 8.3.2 2.2.7 5.7 1 7.6.3 1.9 1.6 11.4 3 21s2.7 18.6 2.9 20c.3 1.4.7 6.3 1.1 10.9.3 4.6.8 9.4 1 10.5 1.5 6.8 1.4 7.6-1.7 9.2-1.7.8-3.2 1.4-3.4 1.2-.5-.5-1.4-8.5-2-16.8-.3-4.1-.7-8.6-1-10-.2-1.4-.7-5.3-1-8.8-.4-3.5-1-7.6-1.5-9.2-.4-1.6-.6-3-.4-3.3.2-.2 0-3.5-.5-7.3-.6-3.8-1.3-9.6-1.6-12.9-.7-7.1-1.2-10.8-2.6-19.3-.5-3.5-1.2-8.6-1.4-11.4-.2-2.7-.9-7.5-1.5-10.6-.5-3.2-1.2-7.4-1.6-9.6-.3-2.1-.8-4.8-1-6-.2-1.1-.7-6.6-1-12.1-.5-10-1.2-12.3-3.3-11-1.3.7-.7 13.3.8 19.4.5 2 .9 4.3.9 5.1 0 .8.8 5.3 1.6 10 2.6 13.7 5.8 34.1 6.1 39.2.2 2.6.6 6.9 1 9.5.4 2.7.8 6.1 1 7.8.2 1.6.6 4.8.9 7 .5 4.1 1.3 11.8 2.1 21.5.3 3 .7 7.1 1 9 .5 3.9 1.6 14.7 1.7 17 .2 3.8-.2 4-3.4 2.2-1.8-1-6-2.4-9.3-3.1-3.3-.7-11.8-3.1-19-5.3-7.1-2.2-15.7-4.8-19-5.8-3.3-1-12.7-4-21-6.6-8.2-2.6-15.4-4.9-16-5-1.3-.2-8.2-2.6-17-5.9-8.3-3-40.3-13.8-46-15.5-6.7-1.9-14.9-4.1-16.5-4.5-.8-.2-4-1.2-7-2.3-5.5-2-13-4.1-16.2-4.6-3.3-.4-3.2-.1-4.2-22-.4-7.1-.8-13.1-1-13.5-.4-.6-1.1-6.3-2.2-16.1-1.1-11.1-1.5-14.2-3.4-25.5-1-6.6-2.1-13.4-2.4-15-.2-1.7-.9-5.4-1.5-8.4s-1.4-7.9-1.7-11c-.6-5.7-.8-7.7-1.8-14.4-.6-4.1-.7-4.1 2.7-2.8 1.3.5 4 1.2 6 1.5 2 .3 5.6 1 7.9 1.5 2.4.6 6.6 1.3 9.3 1.6 9.8 1.2 17.1 2.6 23 4.4 3.3 1.1 7.4 2.2 9 2.5 1.7.4 3.9.8 5 1.1 1.1.2 6.7 1.6 12.5 3 5.8 1.5 11.4 2.9 12.5 3.1 5.7 1.1 12.4 2.9 15.3 4.1 1.9.8 5.5 1.8 8 2.4 2.6.5 5.6 1.1 6.7 1.4 1.9.5 22.8 4.9 28.5 6 2 .4 7.7 1.7 13 3 2.1.5 8.3 1.5 12 2 2.5.3 5.9.9 7.7 1.4 2.5.7 3.3.6 3.8-.7.6-1.6-1-3.1-3.5-3.3-.8 0-2.4-.2-3.5-.5-1.1-.2-4-.6-6.5-.9-5.5-.6-8.2-1.1-14-2.5-2.5-.6-5.9-1.3-7.6-1.5-1.7-.3-4.2-.9-5.5-1.4-1.3-.5-2.6-.8-2.9-.8-.3 0-2.7-.5-5.5-1.1-2.7-.7-6.1-1.4-7.5-1.6-1.4-.2-8.1-1.8-15-3.6-6.9-1.7-13.6-3.3-15-3.6-1.4-.3-7-1.8-12.5-3.3-5.5-1.6-13.4-3.6-17.5-4.5-10.3-2.3-10.8-2.4-17-4.1-3-.8-7.3-1.8-9.5-2-2.2-.3-4.7-.7-5.5-1-.8-.2-3.5-.7-6-1-2.4-.3-6-1-8-1.5-1.9-.5-5-1.2-6.9-1.5-1.9-.3-3.8-.8-4.3-1.1-.5-.3-2-.8-3.5-1-4.1-.8-5-1.7-2.3-2.4 2.8-.8 6.2-.6 7.7.3zM484 515.5c0 1-15.3 15.5-16.3 15.5-1.2 0 .4-2.1 7.7-9.8 5.2-5.3 8.6-7.6 8.6-5.7zm-95.8 18.4c2.4.6 5.7 1.3 7.3 1.6 1.7.3 3.5.7 4 .9.6.1 2.8.6 5 1.1 2.2.4 4.5 1 5 1.4.6.3 1.5.6 2 .6 1.2.1 1 1.6-1.1 7.2-1.4 3.7-2 4.3-5.2 4.8-2 .3-6 1.2-8.7 2-4.5 1.3-5.7 1.3-10.8-.1-3.1-.9-5.4-2-5.1-2.5 1.2-2 14-4.7 19.4-4.2 3.5.3 5.1.2 4.5-.4-1.6-1.5-17.9-6.9-23-7.5-3-.4-2.7 3.4.4 3.9 1.3.2 3 .7 3.9 1.2 1.2.7.7 1.2-2.6 2.2-2.3.7-4.4 1-4.7.8-.2-.3-.7-3.8-1.1-7.8l-.6-7.3 3.6.6c1.9.3 5.5 1 7.8 1.5zm-173.7 4.9c9.4 2.8 24.9 7.9 34.5 11.2 9.6 3.4 21.6 7.4 26.5 9 17 5.3 44 14.2 46 15 2 .9 19 6.2 19.9 6.2.3 0 6.9 2.2 14.8 4.9 17.2 5.9 17.8 6 17.8 4.8 0-1.4 1.9-1.1 6.7 1.3 4.3 2.1 4.4 2.1 9.3.4 2.7-1 5.9-1.9 7.2-2.1 1.3-.1 3.5-.8 5.1-1.4 1.5-.6 2.7-.8 2.7-.6 0 .2 1 .1 2.3-.4 1.3-.5 4.1-1.2 6.3-1.5 7.3-1.2 9.9-1.7 11.4-2.1.8-.2 3-.7 4.9-1 1.9-.3 3.8-.8 4.2-1.1.4-.2 2.7-.7 5.1-1 3.7-.5 7.2-1.3 16.8-3.9.8-.2 4.7-1.3 8.5-2.5 3.9-1.1 10.4-2.9 14.6-4 8-2 14.9-4.8 14.9-6.1 0-.4-1.2-1.7-2.6-2.8-2-1.6-2.3-2.1-1-2.1 1 0 2.5.4 3.4.9 1 .5 4 1.2 6.7 1.5 7.4.9 8 1.1 8.4 2.1.1.6-4.1 2.5-9.5 4.3-11.3 3.7-13.1 4.2-19.4 4.9-2.5.2-6.3 1.3-8.5 2.3-2.2 1-6.7 2.5-10 3.4-3.3.8-9.8 2.4-14.4 3.6-10.4 2.7-12.7 3.2-19.1 4.4-1.9.3-3.8.6-4.2.6-.4.1-2.6.7-4.8 1.5-2.2.8-4.3 1.4-4.5 1.4-.3 0-1.8.2-3.3.5-1.5.4-4 .8-5.7 1.1-3.3.5-14.1 3.2-16.5 4.2-.8.3-2.4.8-3.4 1-3.3.6-3.3.5-4 12.8-.6 9.4-1.6 18.3-2.2 20.7-.4 1.3-1 1.5-2.2.9-4.8-2.5-13.2-6.1-14-6.1-1.6 0-1.9-2.2-1.6-10.7.3-6.5.1-8.5-1.1-9.5-.9-.7-2.2-1.9-3-2.6-.8-.7-2.7-1.7-4.2-2.2-1.6-.5-8-2.7-14.3-5-6.3-2.3-13.3-4.6-15.5-5.2-2.2-.6-4.9-1.4-6-1.9-15.2-6.1-42.9-15.5-52.5-17.9-2.5-.6-7.2-2-10.5-3-3.3-1.1-7.1-2.1-8.5-2.4-1.4-.2-7-1.8-12.5-3.4-12.6-3.8-20.4-5.4-21.7-4.6-.9.6-.6 9.3.5 14.7.2 1.1-.8 1.2-6 .5-.7-.1-1.3-.9-1.3-1.9 0-2.3-1.9-6.9-3.9-9.2-1-1.2-1.4-4-1.4-9.3.1-4.1.3-7.8.6-8.1.6-.5 4.4.3 15.2 3.2 3.3.9 9.4 2.4 13.5 3.4s9.1 2.5 11 3.4c1.9.9 6.9 2.5 11 3.7 4.1 1.2 8.4 2.5 9.5 3 1.1.4 6.1 2 11 3.5 5 1.6 9.5 3.1 10 3.4.6.3 1.5.6 2 .7.6.1 4.2 1.4 8 2.9 26 9.7 36.5 13 36.5 11.4 0-.5-1.2-1.4-2.7-2.1-1.6-.6-4.7-1.9-7-2.9s-5.3-2-6.7-2.3c-4-.7-6.6-1.6-13.3-4.7-3.4-1.6-7.5-3.2-9-3.5-1.5-.4-5.7-2-9.3-3.5-7.1-3-27-9.7-45-15.2-6.3-1.9-15.3-4.6-20-6.1-4.7-1.4-8.9-2.6-9.5-2.7-.5 0-1.4-.4-2-.8-2-1.4-7.2-1.2-8.4.3-.8 1-1.2 3.8-.9 8.1.1 3.6.1 6.5-.2 6.5-.3 0-2.5-.5-4.9-1.1-3.6-.8-4.7-.7-6.2.7-2.4 2.2-1.7 3.1 3 3.9 2.1.3 4.7 1.4 5.7 2.4 1.1.9 2.6 2 3.5 2.3 1 .4 2.2 2.3 2.9 4.3 1.4 4.4.3 5.7-4.2 5-2.7-.5-4.6.9-2.8 2 .6.4 2.3.8 3.8 1.1 1.5.3 3.4.7 4.2 1.1.8.3 2.3.8 3.3.9 6.2 1.3 15.2 9.3 17.7 16 3.2 8.2-3.7 18.4-12.3 18.4-4.9 0-9.2-1.9-20.7-8.9-11.1-6.8-13.6-9.4-15.6-15.5-.9-2.8-2.9-7.9-4.5-11.3-3.2-6.6-4.1-12.6-2.7-15.9.5-1.1 2.5-2.9 4.5-3.9 1.9-1 4.4-2.7 5.5-3.7 1.2-1 4-3.2 6.2-5 2.3-1.7 5.9-5.3 8-8 4.6-5.9 2.6-6 26.1 1zM408 557c0 2.3-.5 2.4-5 .8-3-1-3.2-1.2-1.4-1.9 3.7-1.5 6.4-1 6.4 1.1zm-25.5 1.2c0 .6 3.3 1.2 8 1.4 4.4.1 10 .7 12.5 1.2l4.5.9-2.8 1.1c-1.6.7-3.4 1.2-4.2 1.2-.7 0-4.1.9-7.5 1.9-4.8 1.5-6.8 1.7-9.1.9-1.6-.5-2.9-1.4-3-1.9 0-.5-.1-2.5-.1-4.4 0-1.9.1-3.8.1-4.2.1-1 1.6.7 1.6 1.9zm65.5 2.7c1.4 2.7 1.3 3.1-.8 3.1-1 0-2.3.5-2.9 1.1-1.2 1.2-8.3.4-8.3-.9 0-.8 7.7-4.8 9.7-5 .7-.1 1.7.7 2.3 1.7zm37 3.3c-1.3.5-3.3 1-4.4 1.3-1.2.2-2.3.4-2.6.5-.3.2-.9.2-1.4.1-.4-.1-1.4.4-2.2 1-.8.6-1.4.8-1.4.5 0-.4-1-.1-2.2.5-1.3.7-5.3 2-9.1 3l-6.8 1.7-3.9-2.6c-4.3-2.7-4.4-3-1.4-3.5 1-.1 2.4-.5 2.9-.8.6-.4 1.9-.5 3-.3 10.7 1.5 15.2 1.3 21-.9 3.3-1.2 7.1-2.1 8.4-1.8l2.5.4-2.4.9zm-256.9.4c-2.5 6.2-2.1 8.9 1.8 10.1 5.9 2 8.4-.5 2.6-2.6-2.9-1-3.4-1.5-2.4-2.7 1.5-1.8 2.9-1.8 2.9.1 0 2 5 4 6 2.5.4-.6.5-2.3.2-3.7-.3-1.8-.1-2.4.6-1.9.6.4 2.8.9 4.9 1.2 2.1.2 4.2 1 4.8 1.6.7.7.7.9 0 .5-1.6-.8-2.9.4-4.8 4.2-1.1 2.2-1.4 3.8-.8 4.4 1.2 1.2 27.6 8.7 30.6 8.7 1.9 0 2.2-.6 2.3-5 0-3.1-.3-5-1-5-.6 0-.9-.2-.6-.5.4-.4 13.2 3.4 18.3 5.5 7.4 3 9.4 3.7 12.1 3.9 1.4.1 1.3.4-.4 1.8-1.1 1-2.4 3.2-3 5-1.1 3.4-1.4 3.2 8 6.4 5 1.7 6.4.3 6.7-6.4.1-1.4.7-1.6 2.9-1.1 3.4.9 3.9 1.3 2.5 2.2-1.5.9-2.5 6.3-1.5 7.8.4.6 3.2 2 6.2 3.1 3 1.2 8.1 3.3 11.2 4.7 3.1 1.4 6.2 2.6 6.7 2.6 2.7 0 .1-7.6-3.7-10.8l-2.7-2.2 3 .6c1.7.4 5.5 1.9 8.5 3.4 5.8 2.9 7 5.1 6.2 11.2-.5 3.2-2.4 3.6-7.8 1.3-1.9-.8-3.7-1.4-3.9-1.4-.3 0-1.8-.7-3.3-1.5-1.5-.7-8.3-3.3-15.2-5.6-6.9-2.3-12.9-4.6-13.5-5.1-.5-.5-1.6-.9-2.5-.9-.9 0-4.5-1.2-8.1-2.6-3.5-1.4-7.3-2.7-8.4-3-1.1-.2-3.1-.8-4.5-1.3-3.4-1.3-20.4-6.4-21-6.4-.3.1-1.2-.3-2-.7-.9-.5-3.5-1.1-5.9-1.5-2.4-.3-5.1-1-6-1.5-3.3-1.8-24.8-6.9-29.6-7.1-7-.3-8.5-1.2-8-5 .4-3.2 1.4-5.1 1.6-3.1.1.7.3 1.6.4 2.2.1.5.3 1.4.4 2 0 .5.8 1 1.6 1 1.5 0 3.7-4.1 3.4-6.4-.4-3.5.2-4.6 2.4-4.2 1.2.1 2 .7 1.8 1.2zm194.9 2c9.9.3 10 .3 10 1.2 0 1.4-18.1 5.6-23.5 5.5-2.8 0-6.5-.8-8.3-1.7-1.7-.9-3.4-1.6-3.7-1.6-4.3.1-3-.7 3.6-2.4 7.8-2 10.1-2.4 12.4-1.8 1.1.3 5.4.6 9.5.8zm90.7 14.1l-.2 12.8-7.5 2.3c-4.1 1.3-9.5 2.9-12 3.7-2.5.8-6.1 1.7-8 2-4.8.8-6.5 1.3-14 4-3.6 1.4-8.1 2.7-10 3-1.9.3-7.1 1.7-11.5 3.1-4.4 1.4-10.5 3.1-13.5 3.9-3 .7-9.5 2.5-14.5 3.9-4.9 1.5-9.7 2.8-10.5 3-.8.2-2.2.6-3 .9-.8.3-4.6 1.5-8.5 2.8-5.8 1.8-13.3 4.8-16.8 6.7-1 .5-.3-9.2 1.8-24.8.4-3 .9-5.8 1.1-6.2.5-.7 11.6-4.6 15.5-5.3 1.3-.3 5-1 8.2-1.6 3.3-.5 7.1-1.5 8.5-2.1 1.5-.5 3.6-1.2 4.7-1.4 2.1-.4 3.1-.6 10-2.3 2.2-.6 5.6-1.3 7.5-1.6 1.9-.3 5.5-1.1 8-1.6 2.5-.6 5.5-1.3 6.8-1.5 1.3-.3 6.9-2 12.5-3.9 5.6-1.8 11.8-3.6 13.7-3.9 5.3-.8 7.2-1.3 12.8-3 2.9-.8 5.2-1.2 5.2-.9 0 .3.7 0 1.5-.7s3.8-1.8 6.7-2.5c2.9-.7 5.4-1.3 5.5-1.4.2-.1.2 5.6 0 12.6zM254.5 570c.8 1.3-.5 1.3-2.5 0-1.3-.8-1.3-1 .2-1 .9 0 2 .4 2.3 1zm191.9 1.4c4.7 1.9 3.9 3.2-2.4 4.1-8 1.1-9.9 1.5-12.7 2.6-5.6 2.3-9.6 2.1-12.8-.7-1.6-1.5-2.5-2.4-2-2.1.6.3 6.4-1 13-2.8 6.6-1.8 12.2-3.1 12.5-3 .3.2 2.3 1 4.4 1.9zm-192.7 1.7c1.7 1.7.4 3.9-2.3 3.9-2.8 0-4.4-2.8-2.3-4.1 1.9-1.2 3.3-1.1 4.6.2zm142.1.4c4.4.8 5.3 1.9 2.5 2.9-1.7.7-14.1-2.1-15.7-3.5-1-.9 7-.5 13.2.6zm-121.9 2.1c.9.9-5.3-.7-6.3-1.7-.5-.5.5-.4 2.4.1 1.8.5 3.5 1.2 3.9 1.6zm-4.3 4.4c2 0 3.4.6 3.8 1.6.5 1.4.1 1.5-3.1 1-5.7-1-13.3-3.6-13.3-4.6 0-.4 2.1-.2 4.7.6 2.5.8 6.1 1.4 7.9 1.4zm146.9-.9c1.4 1.4-.8 2.6-6.4 3.5-2.5.4-5 .9-5.6 1-.5.2-2.6.6-4.5.9-1.9.3-6.3 1.5-9.7 2.7-6.1 2.1-6.3 2.1-8.3.3-1.1-1-2-2.1-2-2.4 0-.8 10.9-4.2 13.5-4.3 1.1 0 3.5.3 5.3.7 2.8.7 3.2.5 3.2-1.3 0-1.5.8-2.2 2.8-2.4 4-.6 10.6.2 11.7 1.3zM385 579c0 .5-.2 1-.4 1-.3 0-.8-.5-1.1-1-.3-.6-.1-1 .4-1 .6 0 1.1.4 1.1 1zm-133 12c2.6 5.4 1.2 9-4.8 12.1-2.7 1.4-6.3 2.4-8.3 2.4-9.1-.4-8.6-.1-9.3-5.3-.3-2.6-.9-6-1.3-7.6-.5-2.4-.3-2.8 1.1-2.3.9.4 1.6.2 1.6-.3 0-2.7 11.7-5.2 16.4-3.5 1.6.6 3.5 2.4 4.6 4.5zm56.8 1.8c.6 1.8-1.5 1.4-2.2-.4-.4-1-.1-1.4.6-1.2.6.2 1.4 1 1.6 1.6zm4.9 2.8c-.3.3-1.2.4-1.9.1-.8-.3-.5-.6.6-.6 1.1-.1 1.7.2 1.3.5zm22.8 3.2c-.3.3-1.1 0-1.8-.7-.9-1-.8-1.1.6-.5 1 .3 1.5.9 1.2 1.2zm-5.8 1.7c2.9 1.4 5.3 2.8 5.3 3 0 .2-2.7-.6-6-1.7-3.3-1.2-6-2.6-6-3 0-1.2.9-1 6.7 1.7z"/><path d="M185 414.3c-3.1 1.6-5.3 3.8-7 6.8l-2.5 4.4.1 28.5c.3 42.5 2.9 53.7 13.9 59.2 3 1.5 4.5 1.5 13.5.1 6.6-1 6.5-1.1 6.2 2.2-.3 3-.1 3.1 5.3 4.1 8.5 1.5 8.7 1.1 9.3-13.7.6-16.7.6-24-.1-26.4-.3-1.1-.6-3.7-.6-5.7-.1-3.5-.3-3.7-3.8-4.3-2.1-.3-7.6-1.7-12.3-3.1-12.6-3.6-12.1-3.9-11.8 5.6l.3 8.1 3.5.8c1.9.5 5 1.2 6.8 1.6 2.8.6 3.2 1 2.6 2.8-3.4 11-6.6 15.6-11.2 15.7-6.6.1-8.3-9-8.6-44-.3-23.8.5-28 5.3-30.4 2.2-1.2 3.2-1.2 5.8-.1 4.7 2 6 5 7 16 .3 3.3 1.1 6.6 1.8 7.4.7.7 3.4 1.5 5.9 1.7 5.8.4 7-1.4 6.2-9.5-.7-7.3-1.9-11.2-5.2-16.9-3.6-6-4.3-6.7-10.4-9.8-7.4-3.7-14.3-4.1-20-1.1zM239.3 429.8c-.9 3.5-.8 17.2.1 36.2.4 8.5.9 20 1.1 25.5.4 11.8 2.7 26.1 5.1 31 2.2 4.7 8.8 8.5 15.6 9.1 7.3.5 14.9-3.3 19.3-9.7 3.8-5.5 6.4-16.1 7-27.9.7-15.4.8-49.5.1-51.7-.8-2.6-8.6-6.6-11-5.7-2.3.9-3.1 5-2 10.3 1.1 5.5 1.1 19.6 0 30.1-.5 4.1-.9 12.9-1.1 19.5-.1 9.1-.6 12.9-2 15.7-3.1 6.3-9.1 7.6-12.7 2.7-1.5-2-2-4.7-2.4-13.5-.2-6-.6-12.5-1-14.4-.7-4.9-1.4-17.5-1.9-37.5l-.4-17-3.4-1.8c-1.9-1-4.9-2.2-6.6-2.7-2.8-.8-3.2-.6-3.8 1.8zM306.1 442.9c-.7.5-1 2.5-.7 5.2.2 2.4.8 7.5 1.2 11.4.4 3.8.7 23 .6 42.6 0 19.6.3 36.1.7 36.8 1.2 1.9 14 4.8 20.7 4.6 9.5-.3 14.5-2.8 19.3-10 5.8-8.6 6.8-12.3 6.5-24.5-.2-9.5-1.4-15.7-5.8-30.5-.2-.6-.7-2.3-1.1-4-1.1-4.1-5.9-12-10.8-17.8-4.2-5-8.4-7.6-16.4-10.2-2.6-.9-5.7-2-6.8-2.5-3.2-1.4-6.2-1.8-7.4-1.1zm20.6 25.3c3.7 4.1 12.1 18.2 12.7 21.3 1.8 9.7 2.4 25.7 1.1 31.5-1.8 8.3-8 12.3-16.2 10.3l-3.8-.9.1-5.4c.7-31.3 1.6-57.6 2-58.2.8-1.3 1.9-.9 4.1 1.4zM227.3 515.6c.2 8 .2 7.9 7.6 9.1 2.1.3 3.6 0 4.1-.7.8-1.3.4-13.5-.5-14.9-.3-.5-3-.9-6-.9l-5.5.1.3 7.3zM288.3 524.2c-.7 12.4-.5 13 6.5 14.3 4.7.9 6.2-1.1 6.2-8.2 0-4.8-.2-5.4-3-6.8-1.6-.8-4.4-1.5-6.3-1.5-2.7 0-3.3.4-3.4 2.2zM347.7 540.4c-.2 1.2-.4 4.1-.3 6.6.1 4.8-.7 4.4 9.1 5.2l3 .3.1-5.7c0-3.2-.2-6.2-.6-6.8-.3-.5-2.9-1.2-5.7-1.3-4.6-.3-5.2-.1-5.6 1.7zM350 589.8c0 1.2 5.4 3.6 12.4 5.6 3.2 1 6.9 2.4 8.1 3.2 2.4 1.5 3.5 1 3.5-1.6 0-1.2-1.4-2.1-4.7-3-6.5-1.8-6.3-1.7-6.5-2-.2-.1-1.6-.4-3.2-.6-1.6-.3-3.7-.9-4.7-1.5-2.2-1.1-4.9-1.2-4.9-.1zM285.5 583.7c-.9.8-1.4 2.2-1.1 3 .3.8.6 1.6.6 1.9 0 .2 1.8 1.3 3.9 2.4 4.7 2.4 6.8.8 3-2.2l-2.4-1.9 3.3 1.6c2.6 1.3 3.2 1.3 3.2.2 0-1.8-2.8-4.3-6.2-5.6-2.2-.8-3.1-.7-4.3.6zM349.4 607.5c-1.1 4.4 2.5 6.3 4.6 2.5 1.3-2.4.8-3.6-2-4.3-1.5-.4-2.2.1-2.6 1.8zM497.2 578c-3.4.9-6.2 1.6-6.2 1.4 0-.2-1.1.1-2.5.6s-3.6 1.2-4.8 1.4c-9.5 1.9-12.3 2.4-12.9 2-.7-.4-2.1 1.3-2.5 3.1-.1.5-.4 2.1-.8 3.5-.8 3.6-.9 8.5-.2 9.7.4.6 1.7.9 2.9.7 6.9-.9 17.7-3.8 25.8-6.9 5-1.9 9.6-3.3 10-3 1.2.7 4-2.3 4-4.3.1-.9.7-2.8 1.4-4.1.7-1.3 1.1-3.2.8-4.3-.6-2.3-6-2.2-15 .2zm9.6 4.8c-.6 1.5-2.6 3.5-4.6 4.5-3.4 1.8-3.5 1.7-5.6-.3-2.5-2.3-4.7-2.5-7.9-.9-2.8 1.5-3.7 2.8-3.7 5.6 0 1.8-.7 2.3-3.7 2.8-2.1.3-5 .8-6.5 1-1.6.3-2.8.3-2.9.2 0-.1-.2-2.1-.5-4.3-.6-4.6-1.4-4.1 9.3-5.9 1.8-.3 7.3-1.6 12.4-3 5.1-1.3 9.6-2.2 10-1.9.5.3.9.1.9-.4 0-.6.8-.8 1.9-.5 1.6.4 1.7.9.9 3.1zm-13 7.3c-.2.6-.7 1-1.1 1-.4-.1-1.4-.1-2.3-.1-.8 0-1.2-.5-.9-1 .8-1.3 4.8-1.3 4.3.1zM452 589c-.8.5-2.5 1-3.7 1-1.5 0-2.3.6-2.4 1.7-.2 4-.8 8.6-1.3 9.9-.9 2.4 4 2.8 7.1.7 1.5-1.1 3.6-2.3 4.5-2.6 1.1-.4 1.5-1.2 1.2-2.2-.5-1.3-1.5-1.5-4.5-1-3.1.5-3.9.4-3.9-.9 0-1.6 7.3-4.2 9-3.1.6.3 1 1.9 1 3.6 0 2.3.4 2.9 2.1 2.9 2 0 2.1-.4 1.6-4.6-.2-2.6-1.1-5-1.8-5.5-1.9-1.2-7-1.1-8.9.1zM433 594.2c-1.4.5-5.2 1.7-8.5 2.5-5.8 1.4-7.8 1.8-12.8 2.7-1.3.2-5.4 1.7-9.3 3.3-5.8 2.5-6.9 3.4-6.9 5.4 0 2.1.5 2.4 4.2 2.7 2.2.2 7-.4 10.5-1.3 3.4-1 7.2-1.9 8.3-2.1 1.1-.2 5.8-1.4 10.3-2.6 8.2-2.1 8.4-2.2 7.8-4.9-.4-1.9 0-2.9 1.1-3.3 1.2-.5 1.3-.9.3-2.1-1.4-1.7-1.6-1.7-5-.3zm-7.5 6.9c.9 1.4.5 1.7-3.5 2.4-1.9.3-4.2.8-5 1-1.7.5-7.8 1.5-13 2.1-3.3.4-3.3.3-1-.7 2.1-.9 19-5.6 21.2-5.8.4-.1 1 .4 1.3 1zM426 608.2c-8.2 2.3-8.8 2.4-18.5 4.4-9.2 1.8-10.7 2.7-10.3 6.3.3 2.3.8 2.6 4.3 2.7 2.2.1 8.5-1.4 14-3.2 14.6-4.8 17.6-6 18.6-7.5.4-.8 1.4-1.4 2.1-1.4 1.3 0 1.8-.7 1.8-2.4 0-1.3-4.7-.9-12 1.1zm-16.1 8.2c-1.2 1-4.9 1.6-4.9.7 0-.5 1-1.1 2.3-1.3 2.2-.4 3.4-.1 2.6.6zm3.1-1c0 .3-.4.8-1 1.1-.5.3-1 .1-1-.4 0-.6.5-1.1 1-1.1.6 0 1 .2 1 .4zM670.7 367.7c-1.6 1.6-.2 3.8 6.6 10.6 12.5 12.2 25.3 35.2 34 60.8 3.3 9.8 4 12.1 5.3 19.3.6 3.6 1.3 4.8 2.3 4.1.5-.2.2-3.9-.5-8.2-.8-4.3-1.5-8.7-1.7-9.8-.2-1.1-.6-2.7-1-3.5-.3-.8-1.3-4-2.2-7-1.8-5.9-6.9-18.4-11.8-29-3.1-6.7-14-23.6-18-28-3.5-3.9-10.6-10-11.5-10-.5 0-1.2.3-1.5.7z"/><path d="M672.3 390.7c-2.5.9-1.2 3.9 4 9.4 6.6 7.1 10.6 12.3 13.5 17.6 6.2 11.8 15.7 36.8 16.6 43.8.3 2 .9 4.2 1.4 4.8.5.7 1.2 3.2 1.5 5.7.3 2.5.8 5.6 1.1 7 .8 3.1 1.4 10.9 1.5 17.5.1 3.7.4 4.6 1.3 3.7 1.3-1.3 1.8-15.8.7-21.2-.4-1.9-1-5.3-1.3-7.5-.8-6.2-3.5-18.5-5.1-23.1-8.1-24-17.1-41.1-27.4-52.1-3.2-3.5-6-6.3-6.2-6.2-.2 0-1 .3-1.6.6zM671.3 425.6c-.3.9.7 3.1 2.5 5.3 4.1 5.1 8.1 12.6 12.6 24.1 4.3 10.5 12.7 35 12.1 35-.2 0 .3 1.7 1.2 3.7.8 2.1 1.7 4.7 1.8 5.8.2 1.1 1.1 4.7 1.9 7.9.9 3.3 1.9 7.6 2.2 9.5.3 2 .8 4.5 1.1 5.6.6 1.8.7 1.8 1.3-.5.3-1.4-.2-6.3-1.2-11s-2-9.9-2.2-11.5c-.3-1.7-.5-3-.6-3-.1 0-.3-1-.6-2.2-.2-1.1-1.8-7.2-3.5-13.5-1.7-6.2-3.2-11.8-3.3-12.3-.1-.6-1-2.7-1.9-4.9-.9-2.1-1.7-4.4-1.7-5.1 0-1.6-5.7-15.4-7.5-18.2-.8-1.2-1.5-2.7-1.5-3.3 0-1.9-9-13-10.6-13-.8 0-1.7.7-2.1 1.6zM669.4 446.3c-.3.8 1.6 5.7 4.2 10.8 4.7 9.6 11.9 27.9 10.8 27.9-.4 0-.2.6.4 1.3.6.7 1.4 2.8 1.7 4.7.3 1.8.8 3.6 1 4 .2.3.6 1.7.8 3.1.3 1.3 1 4.4 1.7 6.9s1.4 5.6 1.7 7c.2 1.4.9 4.5 1.4 7 1.3 5.4 1.3 5.5 3.8 20.4 1.1 6.5 2.3 12.1 2.7 12.5.3.3.3-3.9 0-9.4-.7-10-.9-11.7-2.2-21-.4-2.7-.8-6.1-.9-7.5-.7-8.1-9.1-38.9-13-47.5-8.2-18.3-12.4-24.4-14.1-20.2zM662 479.3c0 1.2.8 3.4 1.7 4.7 1 1.4 1.8 3 1.9 3.7.1.6 1.3 4.7 2.7 9 4 12.6 7 26.8 8.3 39.8.2 2.7.6 6.6.9 8.5 1.5 13 2.3 36.5 1.4 41-1.5 7.2-1.9 11-1 11 .9 0 1.3-1.5 2.6-8 2.7-13.6 2.4-45.6-.5-63-.5-3-1.2-7.3-1.5-9.5-.4-2.2-1.1-5.8-1.7-8-.5-2.2-1.2-4.9-1.4-6-.9-4.5-4.6-15.4-7.1-20.3-1.7-3.5-3.1-5.2-4.4-5.2-1.3 0-1.9.7-1.9 2.3zM654.1 492.8c-.7 1.3-.6 2.3.2 3.1.7.7 1.2 1.5 1.3 1.9 0 .4.7 3.2 1.6 6.2 1 3 1.9 6.6 2.2 8 .2 1.4.9 4.5 1.5 7 1.4 6.3 1.9 9.6 2.6 16.9.3 3.5.7 6.6.9 7 .2.3.7 5.1 1.1 10.6.3 5.5.8 11.6 1.1 13.5.2 1.9.6 12.5.9 23.5.3 11 .7 21.2.9 22.7.2 1.5.2 2.9-.1 3.1-.2.3-.6 4-.9 8.3-.4 8.1.2 9.1 1.7 2.7 2.6-11.5 3-68.1.4-81.1-.2-1.2-.6-4.5-1-7.4-.5-4.5-3.7-25.2-4.9-31.3-1.2-6.1-4.8-15.4-6.2-15.9-2.2-.8-2.2-.8-3.3 1.2z"/><path d="M645.3 512.2c-1.1 1.5-1 2.4.5 6.1 3.6 8.6 8.9 31.2 9.7 41.3.3 3.3.8 8.1 1.1 10.9.3 2.7.7 17 .7 31.7.1 14.6.5 26.4.8 26.2 3.5-2.2 4.6-58.4 1.4-76.9-1.8-10.7-3.1-16.3-6.2-26.5-3.4-11.1-4.7-14-6.3-14-.4 0-1.2.6-1.7 1.2zM638.8 537.2c-.4 1.1 0 3.9 1.6 10.8.3 1.3.8 5.4 1.1 9 .3 3.6.8 8.3 1.2 10.4.3 2.2.7 7.6 1 12 .2 4.5.6 10.8.9 14.1.8 11.6 1.2 55.1.5 60.2-.6 4.1-.4 5.3.6 5.3.7 0 1.4-.8 1.4-1.8.1-.9.3-3.1.4-4.7 1.4-13 1.7-19.6 1.7-38.5 0-28.4-1.3-52.2-3.8-65.5-1.8-10.1-2.6-12.5-4.4-12.5-1 0-2 .6-2.2 1.2zM626.5 549.7c.4 1.6.8 3.5 1 4.3.2.8.8 2.7 1.4 4.2.6 1.6.8 2.8.6 2.8-.2 0-.1 1 .4 2.3.5 1.2 1.1 4.2 1.5 6.7.3 2.5.8 5.6 1.1 6.9 1.9 9.9 2.6 50.9 1.1 72.9-1.6 24.5-2 28.7-4.2 40.2-1.6 8.8-1.8 10.8-.5 9.5.9-1 3.5-11 4.5-17.5 4.3-26.2 4.3-26.4 5.2-40.5.8-13.5.8-39.4 0-53-1.2-20.4-6.9-41.5-11.2-41.5-1.3 0-1.5.6-.9 2.7zM616.6 567.8c-.2.4-.3 2.1-.1 3.7 2.6 20.5 2.6 76.4 0 100-.3 2.2-.7 7.1-1 11-.8 9.7-1.4 14.5-3.2 25.5-.8 5.2-1.7 10.6-1.8 12-.2 1.4-.4 2.5-.5 2.5-.6 0-.7 3.6 0 4 .8.5 1.4-1.4 2.6-8 .3-1.7 1.4-6.4 2.4-10.5 2.3-9.1 3.9-18 4.6-25.2.2-2.9.7-6.9 1-8.8 3.4-25.1 3.9-73.8.9-98-.9-6.7-3.3-10.8-4.9-8.2zM597.6 585.3c-1.7 1.3-1.7 1.6-.3 4.8 2.5 5.4 3 7.7 4.4 18.4 1 7.7 1 57.1 0 65-.5 3.3-1 8.2-1.3 11-.7 6.4-2.1 16.9-4 28.5-.8 5.3-2.4 11-3 11-.4 0-.3-.7 0-1.6.3-.8.8-4.1 1.1-7.2.3-3.1.8-7.5 1.1-9.7.7-5.4 1.6-25.2 1.7-35 .1-13.3-1.3-32.4-3.9-55.5-.9-8.1-2.2-12.2-3.7-11.7-1.3.4-1.6 9.3-.5 17.2.6 4.9 1.2 11.2 2.5 26.5.8 10.1.8 48.1-.1 66-.7 15.3-.9 17.3-2 23-.6 3.2-.6 3.3.8 1.7 1.9-2.4 9.7-27 11-34.7.3-1.9.8-4.6 1.1-6 .3-1.4.7-4.5 1.1-7 .3-2.5.9-7 1.4-10 1.5-9 2.3-24.3 2.4-44.5 0-28-1.4-39.7-5.8-48.3-1.9-3.7-1.7-3.6-4-1.9zM558.4 627.4c-.3.8.4 3.6 1.5 6.3 1.6 3.8 4.1 14.9 4.6 20.8.1.5.5 3 .9 5.5s.9 5.6 1.2 7c.2 1.4.6 3.4.8 4.5.2 1.1.7 5.6 1 10 .4 4.4.9 9.3 1.1 11 3.1 24.2 3.7 80.1.8 89-.5 1.7-.4 1.8 1 .7 2.4-2 3.1-5.9 4.3-23.7.9-13.9.9-31.7-.1-46.5-.4-6.3-.9-13.8-1-16.5-1.4-24.1-6.8-56.9-10.8-65.3-1.5-3.2-4.5-4.8-5.3-2.8zM542.9 640.2c-.3 4.7 1.4 27.3 2.1 27.3.1 0 .3 1.3.5 3 .2 1.6.7 4.6 1.1 6.5.4 1.9.8 4.4.9 5.5.2 1.1.7 5.6 1.3 10 1.7 12.4 2.9 24.9 3.8 39.2.6 10.6.9 15.5 1.9 27.3.3 4.7.8 11 1 14 .5 9.2.4 8.7 1.5 6.8.6-.9 1-3.8.9-6.5 0-2.6-.1-10-.1-16.3 0-6.3-.2-13.8-.3-16.5-.2-2.8-.6-10.2-.9-16.5-.3-6.3-.8-12.6-1-14-.2-1.4-.7-6.3-1.1-11-.4-4.6-.8-8.7-1-9-.2-.4-.7-3.1-1-6-.4-3-.8-5.7-1-6-.1-.3-.6-3.6-1-7.5-.4-3.8-.8-7.2-1-7.5-.1-.3-.6-3.2-1-6.5s-.8-6.7-.9-7.5c-.4-3.3-2.7-10-3.6-10.5-.6-.3-1.1.4-1.1 1.7zM387.4 644.8c-3.9 2.8-3.8 13.2.2 27.2.9 3 1.8 6.6 2.1 7.9.2 1.3.8 3.2 1.4 4.3.5 1 .8 1.8.5 1.8-.3 0 .3 2.4 1.3 5.2 1 2.9 1.8 5.5 1.8 5.8-.1 4.8 13.9 36.4 17.4 39.6l2.2 1.9-.7-3c-.4-1.7-2-5.9-3.6-9.5-5.5-12.6-14.9-43-18-58.2-1.5-7.8-2.1-18.6-.9-19.3.5-.4.9-1.4.9-2.3 0-1.8-2.8-2.6-4.6-1.4zM422 650.4c-1.1 3.1-.6 9.7 1.9 22.4 1.2 5.6 2.3 11.7 2.6 13.5.3 1.7 2.1 9 4 16.2 1.8 7.1 3.6 14.3 3.9 16 2.5 13.4 11.8 41.4 16.7 50 4.5 8 5.5 9.5 6.7 9.5.7 0 1.1-.3.9-.7-1.6-3.1-4.7-10.4-4.7-11.2 0-.5-1.1-3.3-2.3-6.2-3.2-7.2-4-9.2-4.2-10.5-.2-.6-1.4-4.8-2.8-9.5-3.3-11.1-5.8-20.8-6.2-24-.1-1.4-.7-4.1-1.3-6-.6-1.9-1.3-4.8-1.6-6.4-.2-1.7-1.9-9.3-3.5-17-5.2-23.6-6.1-28.4-6.1-34.3 0-4.8-2.4-5.9-4-1.8zM440.3 651.7c-.5 1.5-.8 3.7-.7 4.8.1 1.1.5 5.1.8 8.8.3 3.7 1.8 12 3.2 18.5 1.4 6.4 2.7 12.7 3 13.9 1.2 6.2 9.9 37.7 12 43.8 2.8 8.1 2.7 7.6 4.3 13.5.7 2.5 1.7 4.9 2.1 5.5.5.5.8 1.4.8 1.8.1 3.5 9.9 25.2 13.9 30.5 3.3 4.4 5.6 2.8 2.4-1.6-1.1-1.7-2.1-3.3-2.1-3.7 0-.3-1.1-3-2.4-5.9-2.3-5-11.5-31.7-15.7-45.6-2.7-8.9-10.2-39-13.3-53-2.7-12.5-3.3-16.3-4.1-25.5-.7-7.3-2.8-10.2-4.2-5.8zM404.6 655.1c-.8 1.2-1.3 2.6-1.1 3.3.2.6.6 3.2.9 5.7.2 2.6 1 6.7 1.6 9 .7 2.4 1.4 5.1 1.6 5.9 3.4 14.4 15 51.1 18.8 59.5 6.4 14.2 11 23.5 11.8 23.5.4 0 .8-.4.8-.8 0-1.5-10.7-31.7-13-36.7-1-2.4-2.3-6.4-2.5-8.5-.1-.8-.7-2.6-1.2-4-.9-2.2-8.6-29.5-9.8-34.7-.2-1-1.1-4.5-1.9-7.8-.8-3.3-1.7-8.3-2-11-.6-6.1-.4-5.5-1.5-5.5-.6 0-1.7 1-2.5 2.1zM459 655.5c-.9 2.3-.6 14.6.4 19 .3 1.1 1.4 6.5 2.6 11.9 3 14.6 7.9 35.3 9 38.2.6 1.4 1.2 3.9 1.5 5.7.5 2.8 2.1 7.8 8.5 27.7 1 3 3.3 9.3 5.1 14 1.8 4.7 3.4 8.7 3.4 9 .3 1.1 2.6 6.7 3.7 8.7.6 1.3 1.6 2.3 2.3 2.3.6 0-1.8-8.8-5.8-20.8-3.7-11.4-8.6-27.5-10.8-35.7-5.3-19.9-5.7-21.6-6.2-24.5-.3-1.4-1-4.5-1.7-7s-1.4-5.4-1.6-6.5c-.2-1.1-1.5-7.4-2.8-14-1.4-6.6-2.8-15.2-3.1-19-.8-9-1.3-11.5-2.5-11.5-.6 0-1.5 1.1-2 2.5zM513.7 657.7c-.8 1.7.1 5.1 6 25.3.9 3 1.7 6.4 1.8 7.6.1 1.1.5 2.5.9 3.2.4.7.9 2 1.1 2.9.2 1 1.3 5.7 2.4 10.5 1.1 4.7 2.3 9.9 2.5 11.5.3 1.5 1.2 6.8 2.1 11.8.9 4.9 1.8 10.3 2 12 .3 1.6 1.2 7.5 2 13 .9 5.5 1.8 11.8 2 14 .2 2.2.6 4.9.9 6 .2 1.1.7 5.6 1.1 10.1.3 4.4.8 8.9 1 10 .2 1 .4 2.1.4 2.4.1.3.6-.2 1.1-1 .6-.8.8-4.4.5-8-.2-3.6-.7-10.3-1.1-15-.3-4.7-.7-9.6-.9-11-1.4-11.3-1.7-13.6-2.1-14.1-.2-.3-.6-3.5-.9-7-.3-3.5-.7-7.1-1-7.9-.2-.8-.7-3.1-1-5-.3-1.9-.8-4.6-1-6-.3-1.4-.7-4.1-1-6-.5-3.9-1.2-7.3-1.9-9.8-.3-.9-.7-2.8-1-4.2-.3-1.4-.8-3.6-1.1-5-.3-1.4-.7-3.6-1-5-.4-2.2-3.9-14-6.6-22.5-.6-1.7-1.2-3.8-1.4-4.8-.4-1.8-4.4-8.7-5-8.7-.2 0-.5.3-.8.7zM479.9 662.2c-.4 5.7.2 12.7 1.7 20.2.2 1.2.6 3.9.9 6.1.3 2.2 1 6.6 1.6 9.7.5 3.2 1.2 7 1.5 8.5 4.5 26.4 13.5 57.3 23 79 2.7 6.3 3.1 3.2.7-5-1.3-4.5-2.6-9-2.9-10-.8-3.3-1.4-5.3-4.9-17.2-1.9-6.6-3.8-13.4-4.1-15-.3-1.7-.7-3.5-.8-4-1.1-4.3-1.8-7.4-4-17.5-1.4-6.3-2.7-13.3-3.1-15.5-.3-2.3-.7-5-.9-6.2-.7-3.6-1.7-9.6-2.1-13.8-.3-2.2-.7-5.1-1-6.5-.3-1.4-.7-4.1-1-6-1.1-7.3-1.7-9-3.1-9-.8 0-1.5 1-1.5 2.2zM499.4 663.2c-1 3.3-.3 17.6 1.1 19.8.2.3.6 2.6 1 5 .3 2.5 1.1 6.2 1.6 8.3.5 2 .7 4.2.4 4.7-.3.6-.1 1 .4 1 .6 0 1 .3.9.7-.1.5.1 2.4.5 4.3s.9 4.4 1.1 5.5c1 5 5.9 23.4 7.3 27.5.8 2.5 1.6 5.2 1.8 6.1.2.8 1.1 3.3 2 5.5.9 2.1 1.6 4 1.5 4.2-.2.4 3.9 11.2 5.5 14.9.8 1.7 1.5 3.7 1.5 4.5 0 .8.7 2.3 1.5 3.4 1.4 1.8 1.4 1.8 1.5-.8 0-1.5-.6-4.5-1.4-6.5-1.2-3.4-5.3-17.4-6.1-21.3-.2-.8-1.1-3.8-2-6.5-5.2-16.2-14.5-59.8-16-75.2-.7-6.9-2.7-9.5-4.1-5.1z"/></svg>